<?xml version="1.0" standalone="no"?>
<!DOCTYPE svg PUBLIC "-//W3C//DTD SVG 20010904//EN"
 "http://www.w3.org/TR/2001/REC-SVG-20010904/DTD/svg10.dtd">
<svg version="1.0" xmlns="http://www.w3.org/2000/svg"
 width="626.000000pt" height="626.000000pt" viewBox="0 0 626.000000 626.000000"
 preserveAspectRatio="xMidYMid meet">

<g transform="translate(0.000000,626.000000) scale(0.100000,-0.100000)"
fill="#000000" stroke="none">
<path d="M2423 5413 c15 -2 37 -2 50 0 12 2 0 4 -28 4 -27 0 -38 -2 -22 -4z"/>
<path d="M3285 5410 c206 -4 138 -6 -385 -12 -349 -5 -672 -11 -717 -14 -80
-6 -83 -7 -83 -31 0 -18 -4 -24 -15 -19 -8 3 -15 1 -15 -4 0 -6 6 -10 14 -10
18 0 29 -31 20 -54 -8 -20 -24 -11 -24 15 0 10 -5 19 -10 19 -6 0 -8 -15 -4
-39 5 -30 2 -48 -14 -73 -49 -81 -64 -114 -69 -159 -5 -41 -3 -49 10 -49 12 0
16 -9 14 -40 -1 -39 -2 -40 -39 -40 -34 0 -38 -3 -38 -25 0 -14 -4 -25 -10
-25 -6 0 -10 -26 -10 -57 1 -55 1 -57 17 -38 l16 20 -8 -20 c-4 -11 -10 -28
-12 -37 -7 -24 -23 -23 -23 2 0 11 -4 20 -10 20 -5 0 -10 -11 -10 -25 0 -14 5
-25 10 -25 6 0 9 -17 9 -37 -1 -21 -3 -30 -6 -20 -8 29 -23 19 -24 -15 l-2
-33 -6 35 c-7 34 -7 33 -14 -20 -4 -30 -7 -106 -6 -167 1 -97 -1 -113 -15
-113 -12 0 -16 -10 -16 -35 0 -24 5 -35 15 -35 19 0 20 -56 1 -63 -10 -4 -15
-40 -20 -139 -10 -197 -15 -243 -26 -246 -14 -5 -13 -39 2 -44 15 -5 16 -107
1 -116 -5 -4 -13 -42 -17 -84 -4 -42 -13 -114 -21 -158 -8 -45 -17 -122 -21
-171 -4 -49 -11 -89 -15 -89 -5 0 -9 -25 -9 -55 0 -41 -4 -55 -14 -55 -9 0
-16 -17 -21 -49 -5 -37 -11 -50 -26 -54 -10 -3 -19 -12 -19 -21 0 -9 -7 -16
-15 -16 -8 0 -15 -7 -15 -15 0 -8 -7 -15 -15 -15 -8 0 -15 -8 -15 -18 0 -10
-9 -28 -19 -39 -15 -15 -21 -38 -23 -84 -2 -50 -7 -64 -19 -67 -15 -3 -17 33
-24 380 -3 211 -5 789 -3 1285 2 601 0 899 -7 892 -7 -7 -12 -456 -15 -1287
l-5 -1277 -65 -5 c-49 -5 -34 -6 60 -7 69 -1 163 -6 210 -12 47 -6 128 -12
181 -13 72 -2 95 -6 92 -15 -4 -10 33 -13 163 -15 93 -1 188 -1 212 1 23 1 42
-2 42 -7 0 -11 -121 -17 -563 -29 -182 -5 -280 -12 -285 -19 -4 -6 -14 -14
-22 -17 -8 -3 20 -6 63 -6 l77 -1 0 -45 c0 -43 -1 -45 -29 -45 -23 0 -30 -5
-36 -27 -8 -33 -21 -43 -57 -43 -17 0 -31 -8 -38 -20 -6 -11 -21 -21 -33 -22
-12 -1 57 -4 154 -7 173 -6 176 -6 213 -34 59 -45 71 -72 70 -152 -1 -104 -39
-166 -131 -214 -13 -6 -58 -14 -100 -18 l-78 -6 3 -90 c2 -57 -1 -94 -8 -101
-6 -6 -51 -16 -100 -21 l-90 -11 -2 316 -3 315 -5 -305 c-5 -318 -5 -318 -30
-50 -7 70 -8 57 -6 -75 2 -98 0 -135 -4 -95 l-6 65 -2 -71 c-2 -64 -4 -72 -27
-84 -14 -7 -25 -19 -25 -27 0 -15 -35 -53 -50 -53 -12 0 -49 -20 -68 -38 -7
-6 -17 -12 -21 -12 -15 0 -103 112 -112 143 -5 17 -9 165 -9 328 0 232 3 306
15 345 14 48 50 105 125 196 l35 43 -39 -29 c-57 -43 -93 -84 -121 -141 -40
-83 -47 -159 -43 -472 4 -271 6 -291 27 -343 46 -113 135 -195 248 -230 63
-19 93 -20 1002 -20 1031 0 1021 -1 1085 60 17 16 55 51 84 79 60 57 70 63 46
26 l-17 -25 659 2 659 3 32 24 c18 13 30 28 27 33 -3 4 -1 8 5 8 6 0 15 17 20
37 14 49 14 106 1 98 -5 -3 -10 -1 -10 4 0 6 4 11 9 11 17 0 -7 62 -35 92 -15
15 -41 32 -58 37 -17 5 -294 12 -615 15 -321 3 -587 9 -590 12 -10 10 -12 318
-2 334 8 12 99 15 603 18 512 4 598 6 627 20 38 17 74 68 67 95 -2 9 0 17 5
17 11 0 11 63 0 113 -5 22 -20 50 -33 64 -50 54 -37 53 -766 53 l-676 0 30
-32 c27 -30 26 -29 -18 6 -26 21 -71 47 -100 59 -53 22 -59 22 -688 22 -349 0
-643 1 -653 3 -17 2 -17 52 -15 1020 l3 1017 27 59 c16 32 25 62 22 67 -3 5 0
8 7 7 7 -2 13 2 14 8 0 15 87 81 149 113 l51 26 1258 3 1257 2 0 96 c0 115
-17 161 -95 252 -31 36 -121 93 -163 103 -20 5 -345 8 -722 7 -421 -2 -589 -4
-435 -8z m-1185 -2810 c0 -6 -26 -9 -60 -9 -33 1 -60 5 -60 9 0 4 27 8 60 9
33 0 60 -4 60 -9z m297 -337 c74 -40 114 -111 127 -230 13 -118 -25 -243 -96
-310 -55 -53 -100 -63 -279 -63 l-159 0 0 303 c0 229 3 306 13 316 9 9 54 12
182 9 153 -3 174 -5 212 -25z m723 -53 l0 -80 -141 0 -140 0 3 -41 3 -42 103
2 c57 1 110 5 118 8 11 4 14 -10 14 -76 l0 -81 -115 0 -114 0 -3 -117 -3 -118
-82 -3 -83 -3 0 309 c0 170 3 312 7 315 3 4 102 7 220 7 l213 0 0 -80z m1707
-577 c-3 -10 -5 -2 -5 17 0 19 2 27 5 18 2 -10 2 -26 0 -35z"/>
<path d="M2162 1971 l3 -162 60 7 c33 3 70 10 82 15 56 21 58 224 3 274 -12
11 -42 19 -85 23 l-66 5 3 -162z"/>
<path d="M1846 4713 c-4 -9 -2 -21 4 -27 7 -7 10 -2 10 17 0 31 -5 34 -14 10z"/>
<path d="M2508 4053 c7 -3 16 -2 19 1 4 3 -2 6 -13 5 -11 0 -14 -3 -6 -6z"/>
<path d="M2550 4051 c0 -5 -8 -12 -17 -14 -10 -3 79 -6 197 -7 164 -2 202 -5
160 -11 -30 -5 -126 -8 -213 -7 l-159 3 -29 -33 c-24 -26 -29 -41 -29 -82 0
-27 5 -61 12 -75 13 -30 9 -36 -20 -29 -29 8 -46 64 -39 133 4 36 3 50 -3 41
-16 -25 -12 -148 6 -186 9 -18 31 -43 48 -54 31 -19 56 -20 557 -26 588 -7
637 -4 681 45 15 17 32 49 38 72 15 56 4 151 -22 184 -44 56 -31 55 -623 55
-328 0 -545 -4 -545 -9z m793 -28 c-46 -2 -120 -2 -165 0 -46 1 -9 3 82 3 91
0 128 -2 83 -3z"/>
<path d="M2495 3316 c-31 -14 -31 -14 22 -32 15 -4 14 -8 -10 -22 -35 -21 -51
-79 -43 -149 6 -55 -1 -65 -26 -35 -23 26 -28 60 -19 126 7 51 6 57 -5 41 -22
-30 -18 -173 5 -211 41 -68 -30 -64 1192 -64 1093 0 1103 0 1145 21 62 29 89
88 81 175 -8 80 -30 119 -82 144 -40 20 -65 20 -1136 20 -890 -1 -1100 -3
-1124 -14z m153 -43 c-16 -2 -40 -2 -55 0 -16 2 -3 4 27 4 30 0 43 -2 28 -4z"/>
<path d="M1535 2590 c-13 -5 4 -7 48 -6 37 2 70 6 74 9 9 10 -98 7 -122 -3z"/>
<path d="M1738 2593 c6 -2 18 -2 25 0 6 3 1 5 -13 5 -14 0 -19 -2 -12 -5z"/>
<path d="M1408 2583 c6 -2 18 -2 25 0 6 3 1 5 -13 5 -14 0 -19 -2 -12 -5z"/>
<path d="M1350 2301 c0 -6 4 -13 10 -16 6 -3 7 1 4 9 -7 18 -14 21 -14 7z"/>
<path d="M1520 2074 l0 -56 60 4 c71 5 96 23 86 63 -8 31 -40 45 -102 45 l-44
0 0 -56z"/>
</g>
</svg>
